<?xml version="1.0" standalone="no"?>
<!DOCTYPE svg PUBLIC "-//W3C//DTD SVG 20010904//EN"
 "http://www.w3.org/TR/2001/REC-SVG-20010904/DTD/svg10.dtd">
<svg version="1.0" xmlns="http://www.w3.org/2000/svg"
 width="1667.000000pt" height="1667.000000pt" viewBox="0 0 1667.000000 1667.000000"
 preserveAspectRatio="xMidYMid meet">
<metadata>
Created by potrace 1.11, written by Peter Selinger 2001-2013
</metadata>
<g transform="translate(0.000000,1667.000000) scale(0.100000,-0.100000)"
fill="#000000" stroke="none">
<path d="M7948 16665 c-1 -1 -57 -6 -123 -9 -66 -4 -136 -8 -155 -10 -19 -2
-73 -7 -120 -11 -47 -4 -92 -8 -100 -10 -8 -1 -46 -6 -85 -9 -80 -8 -169 -20
-305 -41 -73 -11 -218 -35 -240 -40 -14 -2 -36 -7 -50 -9 -432 -83 -982 -236
-1340 -373 -120 -46 -364 -146 -435 -178 -38 -17 -85 -37 -104 -45 -73 -29
-452 -220 -586 -295 -352 -196 -655 -393 -985 -639 -52 -39 -100 -75 -106 -81
-6 -5 -26 -21 -44 -35 -37 -28 -265 -217 -319 -265 -308 -273 -615 -582 -821
-825 -30 -36 -61 -72 -69 -80 -26 -27 -245 -303 -318 -401 -108 -146 -270
-382 -352 -514 -41 -66 -89 -142 -107 -170 -140 -219 -413 -759 -549 -1090
-21 -49 -43 -103 -50 -120 -7 -16 -29 -75 -50 -130 -20 -55 -42 -113 -48 -130
-7 -16 -12 -32 -13 -35 0 -3 -3 -12 -7 -20 -38 -97 -188 -591 -212 -700 -2 -8
-15 -63 -29 -123 -14 -59 -28 -118 -30 -130 -31 -147 -48 -228 -52 -257 -3
-19 -9 -51 -14 -70 -5 -19 -11 -55 -14 -80 -3 -25 -8 -54 -10 -65 -3 -19 -12
-76 -21 -135 -4 -23 -8 -53 -20 -150 -3 -19 -7 -62 -10 -95 -3 -33 -8 -70 -11
-82 -6 -32 -14 -122 -31 -383 -16 -231 -8 -997 12 -1155 2 -16 6 -70 10 -118
3 -48 8 -96 10 -105 1 -9 6 -48 9 -87 4 -38 9 -77 11 -85 2 -8 6 -40 10 -70 3
-30 7 -66 9 -80 3 -14 10 -59 16 -100 7 -41 14 -84 16 -95 2 -11 9 -49 15 -85
5 -36 14 -83 19 -105 5 -22 12 -56 15 -75 21 -119 142 -604 174 -700 5 -14 19
-59 31 -100 24 -81 134 -406 154 -455 7 -16 37 -91 66 -165 126 -324 332 -751
509 -1055 25 -44 51 -88 56 -97 27 -47 104 -172 153 -248 92 -142 167 -255
172 -260 3 -3 42 -57 87 -120 45 -63 110 -151 145 -196 34 -45 73 -94 86 -111
58 -76 235 -286 326 -387 586 -648 1217 -1167 1949 -1604 103 -62 189 -112
191 -112 1 0 54 -28 117 -63 216 -118 491 -249 739 -352 91 -37 179 -73 195
-80 17 -7 77 -30 135 -50 58 -21 114 -41 125 -46 114 -49 706 -219 915 -263
14 -3 81 -17 150 -31 110 -23 159 -32 320 -60 35 -6 122 -19 195 -30 22 -4 50
-8 63 -10 13 -2 53 -7 90 -10 37 -4 74 -8 82 -10 8 -3 47 -7 85 -10 39 -3 95
-8 125 -11 124 -11 150 -13 275 -20 160 -9 760 -10 910 -1 141 9 280 20 395
32 25 3 68 7 95 10 116 12 142 16 230 29 17 2 53 7 80 11 28 3 57 8 65 10 8 2
32 6 52 9 37 6 173 30 233 41 24 5 195 42 280 60 11 3 30 7 42 9 75 15 422
111 553 152 30 10 57 18 60 19 155 41 596 210 905 348 77 35 477 233 540 269
71 40 160 91 260 148 22 13 98 60 168 104 70 45 135 86 145 91 61 36 448 308
462 325 3 3 21 17 40 30 19 13 37 27 40 30 3 3 50 41 105 84 55 44 116 93 136
110 19 17 58 50 85 73 85 72 96 82 178 156 105 94 481 470 571 571 39 43 75
84 80 90 170 183 476 580 675 876 106 158 274 430 323 520 10 19 24 44 30 55
75 126 256 486 332 660 7 17 23 52 35 80 54 121 206 505 215 545 2 8 17 53 33
100 72 204 196 638 226 791 2 13 16 78 31 144 27 124 72 360 81 430 2 22 7 51
9 65 7 43 17 114 21 145 2 17 10 86 18 155 38 315 50 545 50 945 0 279 -5 441
-19 615 -2 25 -6 88 -10 140 -3 52 -8 102 -10 110 -2 8 -7 47 -10 85 -4 39 -8
77 -10 85 -2 8 -7 40 -10 70 -10 85 -46 318 -69 435 -2 11 -6 36 -10 55 -3 19
-8 46 -11 60 -8 35 -25 120 -31 148 -36 181 -156 610 -243 868 -292 871 -784
1780 -1338 2474 -24 30 -50 62 -56 70 -125 159 -312 372 -492 558 -255 265
-510 500 -755 696 -47 38 -98 80 -115 93 -115 95 -518 383 -535 383 -6 0 -10
5 -10 10 0 6 -5 10 -10 10 -6 0 -16 5 -23 10 -17 14 -64 45 -192 123 -60 37
-117 72 -125 77 -8 5 -49 29 -90 52 -41 24 -83 47 -92 53 -9 5 -43 24 -75 40
-32 17 -60 33 -63 36 -6 7 -405 204 -495 244 -197 89 -653 270 -730 289 -5 2
-17 6 -25 9 -8 3 -71 24 -140 46 -422 134 -893 242 -1340 307 -25 3 -52 8 -60
9 -8 2 -44 6 -80 10 -36 4 -72 8 -80 10 -8 2 -49 6 -90 10 -41 3 -86 8 -100
10 -14 2 -65 7 -115 10 -49 4 -108 9 -130 11 -48 5 -922 14 -927 9z"/>
</g>
</svg>
